<?xml version="1.0" standalone="no"?>
<svg viewBox="0 0 200 200" xmlns="http://www.w3.org/2000/svg">
  <path fill="#FF0066" d="M45.8,-78.8C59.9,-71.1,72.5,-60.1,80.5,-46.4C88.5,-32.7,92,-16.4,91.9,0C91.8,16.3,88.2,32.5,79.5,45.2C70.9,57.8,57.4,66.9,43.3,74.9C29.2,82.9,14.6,89.9,-0.6,91C-15.8,92.1,-31.7,87.2,-44.3,78.4C-57,69.5,-66.4,56.6,-73.5,42.9C-80.6,29.2,-85.4,14.6,-87.1,-1C-88.8,-16.6,-87.5,-33.2,-80.1,-46.4C-72.7,-59.6,-59.2,-69.4,-44.9,-77C-30.5,-84.6,-15.3,-89.9,0.3,-90.4C15.8,-90.8,31.6,-86.5,45.8,-78.8Z" transform="translate(100 100)" />
</svg>
