<svg xmlns="http://www.w3.org/2000/svg" viewBox="0 0 30 30"><path fill="#303C42" d="M27 26c-.047 0-.087.02-.132.027-.878-1.397-.82-3.394-.75-5.661.111-3.64.239-8.142-3.437-12.34L24 6.707l1.146 1.147a.5.5 0 0 0 .839-.233l1-4a.499.499 0 0 0-.606-.606l-4 1a.5.5 0 0 0-.233.839L23.293 6l-1.317 1.317C17.79 3.642 13.28 3.77 9.634 3.883c-2.264.07-4.263.127-5.66-.75C3.978 3.086 4 3.046 4 3c0-.551-.449-1-1-1s-1 .449-1 1c0 .514.396.924.896.979L9.9 19.39 7.293 22H5a.501.501 0 0 0-.384.18l-2.5 3A.5.5 0 0 0 2.5 26H4v1.5a.5.5 0 0 0 .82.384l3-2.5A.501.501 0 0 0 8 25v-2.293l2.609-2.608 15.412 7.005c.055.5.465.896.979.896.551 0 1-.449 1-1s-.449-1-1-1zM4.318 4.69c1.794 1.136 3.74 1.526 5.771 1.93 2.84.563 5.773 1.152 8.694 3.89l-8.126 8.126-6.34-13.945zm15.172 6.527c2.738 2.92 3.327 5.854 3.89 8.694.404 2.031.794 3.977 1.93 5.771l-13.946-6.339 8.126-8.126z"/></svg>